<svg width="34" height="33" viewBox="0 0 34 33" fill="none" xmlns="http://www.w3.org/2000/svg">
<path d="M17.4668 23.7771C17.4667 19.2242 13.7759 15.5333 9.22293 15.5333C4.67 15.5333 0.979129 19.2242 0.979088 23.7771C0.979088 28.3301 4.66997 32.0209 9.22293 32.021C13.7759 32.021 17.4668 28.3301 17.4668 23.7771ZM18.4459 23.7771C18.4459 28.8709 14.3167 33.0001 9.22293 33.0001C4.12924 33 0 28.8708 0 23.7771C4.13816e-05 18.6835 4.12926 14.5542 9.22293 14.5542C14.3166 14.5542 18.4458 18.6834 18.4459 23.7771Z" fill="white"/>
<path d="M9.22303 30.5475C12.9622 30.5475 15.9934 27.5163 15.9934 23.7771C15.9934 20.0379 12.9622 17.0067 9.22303 17.0067C5.48385 17.0067 2.45264 20.0379 2.45264 23.7771C2.45264 27.5163 5.48385 30.5475 9.22303 30.5475Z" fill="white"/>
<path d="M32.9707 21.8091C32.9706 17.2562 29.2798 13.5653 24.7268 13.5653C20.1739 13.5653 16.483 17.2562 16.483 21.8091C16.483 26.3621 20.1739 30.0529 24.7268 30.053C29.2798 30.053 32.9707 26.3621 32.9707 21.8091ZM33.9498 21.8091C33.9498 26.9028 29.8206 31.032 24.7268 31.032C19.6331 31.032 15.5039 26.9028 15.5039 21.8091C15.5039 16.7154 19.6332 12.5862 24.7268 12.5862C29.8205 12.5862 33.9497 16.7154 33.9498 21.8091Z" fill="white"/>
<path d="M24.7269 28.5796C28.4661 28.5796 31.4973 25.5484 31.4973 21.8092C31.4973 18.07 28.4661 15.0388 24.7269 15.0388C20.9878 15.0388 17.9565 18.07 17.9565 21.8092C17.9565 25.5484 20.9878 28.5796 24.7269 28.5796Z" fill="white"/>
<path d="M23.4834 9.22293C23.4833 4.66997 19.7925 0.979088 15.2395 0.979088C10.6866 0.979128 6.99573 4.67 6.99569 9.22293C6.99569 13.7759 10.6866 17.4667 15.2395 17.4668C19.7925 17.4668 23.4834 13.7759 23.4834 9.22293ZM24.4625 9.22293C24.4625 14.3167 20.3333 18.4459 15.2395 18.4459C10.1458 18.4458 6.0166 14.3166 6.0166 9.22293C6.01664 4.12926 10.1459 4.03697e-05 15.2395 0C20.3332 0 24.4624 4.12924 24.4625 9.22293Z" fill="white"/>
<path d="M15.2396 15.9934C18.9788 15.9934 22.01 12.9622 22.01 9.22303C22.01 5.48384 18.9788 2.45264 15.2396 2.45264C11.5004 2.45264 8.46924 5.48384 8.46924 9.22303C8.46924 12.9622 11.5004 15.9934 15.2396 15.9934Z" fill="white"/>
</svg>
