<svg width="37" height="37" viewBox="0 0 37 37" fill="none" xmlns="http://www.w3.org/2000/svg">
<path d="M21.7646 21.0392L30.4705 27.2655L27.991 29.7451L21.7646 21.0392Z" fill="white"/>
<path d="M21.7646 15.2353L27.991 6.52942L30.4705 9.00894L21.7646 15.2353Z" fill="white"/>
<path d="M36.9999 20.3138L25.3921 18.1351L36.9999 15.9608V20.3138ZM27.5862 18.1355L36.6405 19.8348V16.439L27.5862 18.1355Z" fill="white"/>
<path d="M11.6078 18.1351L0 20.3138V15.9608L11.6078 18.1351ZM0.359476 19.8348L9.41343 18.1355L0.359476 16.439V19.8348Z" fill="white"/>
<path d="M20.314 36.2745H16.6865L18.5001 24.6666L20.314 36.2745ZM17.0857 35.915H19.9148L18.5001 26.8626L17.0857 35.915Z" fill="white"/>
<path d="M20.314 0L18.5001 11.6078L16.6865 0H20.314ZM18.5001 9.41152L19.9148 0.359443H17.0857L18.5001 9.41152Z" fill="white"/>
<path d="M15.2353 21.0392L9.52778 29.7451L7.25488 27.2655L15.2353 21.0392Z" fill="white"/>
<path d="M15.2353 15.2353L7.25488 9.00894L9.52778 6.52942L15.2353 15.2353Z" fill="white"/>
</svg>
