<svg width="47" height="47" viewBox="0 0 47 47" fill="none" xmlns="http://www.w3.org/2000/svg">
<path d="M42.4413 23.7054C42.4413 13.3576 34.0529 4.96881 23.7052 4.96865C13.3574 4.96865 4.96853 13.3575 4.96853 23.7054C4.96869 34.0531 13.3575 42.4414 23.7052 42.4414C34.0528 42.4412 42.4411 34.053 42.4413 23.7054ZM43.7946 23.7054C43.7944 34.8004 34.8002 43.7945 23.7052 43.7947C12.6101 43.7947 3.61539 34.8005 3.61523 23.7054C3.61523 12.6101 12.61 3.61536 23.7052 3.61536C34.8003 3.61551 43.7946 12.6102 43.7946 23.7054Z" fill="white"/>
<path d="M46.3234 23.5003C46.3234 10.8954 36.1052 0.676827 23.5003 0.676649C10.8953 0.676649 0.676649 10.8953 0.676649 23.5003C0.676822 36.1052 10.8954 46.3234 23.5003 46.3234C36.1051 46.3232 46.3232 36.1051 46.3234 23.5003ZM47 23.5003C46.9998 36.4788 36.4788 46.9998 23.5003 47C10.5217 47 0.000172978 36.4789 0 23.5003C0 10.5216 10.5216 0 23.5003 0C36.4789 0.000178568 47 10.5217 47 23.5003Z" fill="white"/>
<path d="M19.1855 27.8676L19.1489 27.9041V27.8676C19.1489 27.8676 19.1733 27.8676 19.1855 27.8676Z" fill="white"/>
<path d="M23.1396 32.193L23.0498 32.205L23.1396 32.1332C23.1396 32.1332 23.1396 32.1751 23.1396 32.193Z" fill="white"/>
<path d="M25.9512 23.4946C25.9512 22.4671 25.1185 21.6339 24.091 21.6338C23.0635 21.6338 22.2303 22.467 22.2303 23.4946C22.2304 24.522 23.0635 25.3547 24.091 25.3547C25.1184 25.3546 25.9511 24.522 25.9512 23.4946ZM26.2503 23.4946C26.2502 24.6872 25.2836 25.6538 24.091 25.6539C22.8983 25.6539 21.9313 24.6872 21.9312 23.4946C21.9312 22.3018 22.8983 21.3347 24.091 21.3347C25.2837 21.3348 26.2503 22.3019 26.2503 23.4946Z" fill="white"/>
<path d="M24.0787 24.8705C24.8551 24.8705 25.4846 24.241 25.4846 23.4646C25.4846 22.6881 24.8551 22.0587 24.0787 22.0587C23.3023 22.0587 22.6729 22.6881 22.6729 23.4646C22.6729 24.241 23.3023 24.8705 24.0787 24.8705Z" fill="white"/>
<path d="M34.9486 12.8455L27.6739 22.8122L24.8442 19.9227L34.9486 12.8455Z" fill="white"/>
<path d="M13.2563 34.0892L20.537 24.1224L23.3667 27.012L13.2563 34.0892Z" fill="white"/>
<path d="M13.4419 12.6543L23.4086 19.9289L20.5251 22.7586L13.4419 12.6543Z" fill="white"/>
<path d="M34.7153 34.3525L24.7485 27.0719L27.6381 24.2422L34.7153 34.3525Z" fill="white"/>
</svg>
