<svg width="36" height="43" viewBox="0 0 36 43" fill="none" xmlns="http://www.w3.org/2000/svg">
<path d="M17.998 0L23.4785 32.8696H12.522L17.998 0Z" fill="white"/>
<path d="M12.2963 29.1416L12.5217 29.3033L8.95551 32.8695L8.79387 32.644L0 20.3478L12.2963 29.1416ZM9.01475 32.1449L11.7971 29.3625L2.02879 22.3766L9.01475 32.1449Z" fill="white"/>
<path d="M27.2054 32.6435L27.0443 32.8695L23.6741 29.498L23.478 29.3014L35.9998 20.3478L27.2054 32.6435ZM24.2027 29.3616L26.9846 32.1446L33.9687 22.3783L24.2027 29.3616Z" fill="white"/>
<path d="M18.0002 40.6957C19.2968 40.6957 20.348 39.6445 20.348 38.3478C20.348 37.0512 19.2968 36 18.0002 36C16.7035 36 15.6523 37.0512 15.6523 38.3478C15.6523 39.6445 16.7035 40.6957 18.0002 40.6957Z" fill="white"/>
<path d="M21.3748 38.3476C21.3746 36.4839 19.8635 34.9731 17.9997 34.9731C16.136 34.9732 14.6253 36.4839 14.6252 38.3476C14.6252 40.2114 16.136 41.7225 17.9997 41.7227C19.8635 41.7227 21.3748 40.2114 21.3748 38.3476ZM21.913 38.3476C21.913 40.5087 20.1608 42.2609 17.9997 42.2609C15.8387 42.2608 14.0869 40.5086 14.0869 38.3476C14.087 36.1867 15.8388 34.435 17.9997 34.4348C20.1607 34.4348 21.9129 36.1866 21.913 38.3476Z" fill="white"/>
</svg>
