<svg width="44" height="46" viewBox="0 0 44 46" fill="none" xmlns="http://www.w3.org/2000/svg">
<path d="M22.0002 0L25.3091 17.2059H18.6914L22.0002 0Z" fill="white"/>
<path d="M24.4088 22.9453C24.4087 21.615 23.3305 20.5367 22.0002 20.5367C20.67 20.5368 19.5917 21.6151 19.5916 22.9453C19.5916 24.2755 20.67 25.3538 22.0002 25.3539C23.3305 25.3539 24.4088 24.2756 24.4088 22.9453ZM24.7397 22.9453C24.7397 24.4583 23.5133 25.6848 22.0002 25.6848C20.4872 25.6847 19.2607 24.4583 19.2607 22.9453C19.2608 21.4323 20.4873 20.2059 22.0002 20.2058C23.5132 20.2058 24.7396 21.4323 24.7397 22.9453Z" fill="white"/>
<path d="M22.0002 24.9398C23.1017 24.9398 23.9946 24.0469 23.9946 22.9454C23.9946 21.844 23.1017 20.951 22.0002 20.951C20.8988 20.951 20.0059 21.844 20.0059 22.9454C20.0059 24.0469 20.8988 24.9398 22.0002 24.9398Z" fill="white"/>
<path d="M22.0002 45.8907L25.3091 28.6848H18.6914L22.0002 45.8907Z" fill="white"/>
</svg>
