<svg width="924" height="924" viewBox="0 0 924 924" fill="none" xmlns="http://www.w3.org/2000/svg">
<path d="M423.91 912.832L400.06 912.782C378.52 894.122 366.67 913.012 350.29 904.682C338.87 898.872 328.68 894.392 316.69 890.502C306.51 887.202 284.55 878.982 288.15 866.272C267.67 869.992 262.16 854.412 241.47 857.532C237.84 852.662 233.21 846.422 231.26 840.692C215.98 795.962 186.08 827.542 179.82 805.702C170.17 807.472 154.43 799.722 148.64 792.762C153.8 775.052 138.96 783.222 121.12 766.112C116.66 761.832 109.79 759.172 103.67 756.702C99.8201 734.642 84.2201 733.612 68.4801 723.692L60.7001 706.002C53.2701 689.122 63.0701 695.912 42.6901 676.242C42.6001 671.542 45.6001 663.862 46.7101 659.542C45.8501 656.282 45.2301 652.122 45.3501 647.252C45.5901 637.682 33.9301 629.572 35.6401 619.852C36.6401 614.122 47.0401 613.562 50.4401 606.412L37.5601 595.122C37.7401 587.552 34.3301 580.922 29.2101 575.992C33.2201 566.802 38.6701 556.842 40.5001 547.482C44.0701 529.172 31.6001 524.022 26.0301 506.892C24.2701 482.492 18.6101 490.382 16.9001 463.322C30.6801 442.472 9.74012 447.262 22.3801 431.642C23.9201 429.742 25.7601 427.212 26.0001 425.612C26.9701 419.192 9.52012 409.692 10.4401 399.262L11.8301 383.452L11.5101 360.842C11.3601 350.072 4.96012 340.142 0.620117 330.402C1.20012 326.882 2.54012 320.252 4.40012 317.692L12.9101 306.042C16.3601 301.322 20.0801 295.702 23.1001 290.982C39.7401 282.312 47.3301 264.102 38.0701 247.502C34.5001 241.102 37.8901 233.842 43.5601 230.382C56.8901 222.252 51.8101 214.912 63.7401 205.112C86.1101 195.512 75.6701 182.862 99.5801 177.762C107.29 176.112 111.29 167.482 115.47 161.662C119.45 156.132 122.73 150.492 125.6 144.302C131.94 136.872 145.29 139.562 149.76 126.382L159.05 99.0021C177.36 93.6821 181.56 81.0021 188.28 76.6721L207.89 64.0421C243.31 72.6021 232.6 44.0821 268.1 49.1721C272.28 49.7721 278.93 49.3521 284.08 49.4821C291.32 49.6621 298.24 44.9921 304.87 42.4421C336.21 30.4121 327.76 29.6021 346.79 18.8421C365.3 8.3721 380.4 34.1221 401.26 17.6521C413.48 8.0121 447.88 9.2821 464.54 14.4221C496.2 24.1921 499.44 10.9821 520.7 23.8321C527.15 27.7321 532.96 32.4821 535.69 39.2521L530.2 46.4221L552.9 57.1721C558.72 59.9321 567.58 59.0421 572.08 55.4521L573.88 51.0621C574.36 49.8821 577.91 50.3021 579.57 50.0821L591.61 48.4821C595.97 51.8221 601.91 54.2621 606.69 53.4421C615.12 51.9921 616.28 56.7921 620.32 61.8921C634.96 80.3221 693.73 78.5921 681.78 108.002C681.67 110.172 686.63 113.622 688.65 113.072C698.1 110.482 701.87 99.7221 710.24 100.912L734.69 104.402C753 116.952 758.57 117.692 769.73 135.732L780.78 153.592C783.53 164.882 798.96 182.392 808.02 186.882C832.43 198.972 805.92 199.742 839.29 230.632C858.82 248.712 881.09 263.042 878.48 291.232L885.09 294.362C888.54 296.002 880.55 302.942 898.44 321.272C908.01 331.072 897.17 338.472 908.32 346.202C914.26 350.322 918.96 356.192 920.03 363.292L923.38 385.392L914.19 398.462C911.73 401.962 911.2 405.902 913.05 409.642L921.45 426.632C911.13 433.942 914.16 445.572 910.77 454.492C906.77 465.002 908.13 470.302 910.17 480.932L913.76 499.662C915.27 507.542 911.17 519.302 905.93 525.842C902.59 530.002 896.15 534.932 892.02 537.102C881.87 542.442 881.02 552.242 875.13 559.302C858.23 579.562 843.32 580.452 851.16 628.762C840.71 642.012 832.24 655.092 824.14 669.322L807.66 698.282C804.22 704.322 802.17 709.332 796.01 713.282C779.29 724.022 780.36 743.052 759.96 759.162L755.83 766.512L749.84 765.322C745.65 764.482 746.52 777.112 730.44 781.782C712.68 786.942 709.25 793.462 698.8 810.892C692.06 822.132 682.91 807.132 663.86 820.602C637.1 829.052 640.35 819.872 619.49 839.822C612.12 846.872 600.83 850.822 597.57 862.132C592.03 881.312 584.71 866.442 561.09 878.872C536.94 891.572 555.28 891.422 516.31 905.542C495.05 913.242 489.25 899.242 468.84 907.232C462.55 909.692 453.98 913.732 447.45 913.522L423.94 912.792L423.91 912.832ZM641.35 793.702C661.18 778.082 680.62 765.232 701.58 752.572C731.92 734.242 755.21 719.812 775.13 690.522C800.59 653.082 778.44 608.532 834.33 562.462C844.81 553.822 851.77 542.282 855.68 529.402C859.47 516.942 866.12 507.312 874.69 497.632C892.3 477.752 887.79 460.522 886.66 433.582C885.44 404.452 879.19 377.532 867.41 350.842C855.73 324.382 844.9 298.662 829.41 274.192C809.84 243.272 791.39 238.122 766.23 192.632C743.4 151.362 701.84 118.442 652.9 123.762L614.76 127.902C605.19 128.942 596.76 125.102 589.53 119.502C554.45 92.3621 559.94 85.7221 510.02 80.5321C448.77 74.1721 445.76 49.8921 389.03 57.7821C351.55 62.9921 315.4 71.3621 280.02 84.4521C252.77 94.5321 228.83 108.332 206.16 126.062C199.43 131.332 192.68 135.882 186.35 141.802C146.39 179.152 111.35 220.362 80.1801 265.352C64.6801 287.722 41.3601 326.322 40.3601 353.322C38.2801 409.522 61.9201 437.352 64.0601 482.052C66.8401 539.922 98.2001 545.352 81.0501 587.552C75.5001 601.202 74.7701 614.982 80.8701 628.452C97.0201 664.132 77.8601 687.672 110.11 713.452C120.47 721.742 132.69 727.142 144.09 734.282C165.02 747.402 185.41 758.312 207.66 769.562C247.48 789.702 281.35 817.442 314.27 847.062C367.47 894.932 405.22 865.622 455.81 878.192C472.08 882.232 487.35 881.352 502.55 873.062L549.55 847.412L598.33 820.042C613.03 811.792 627.33 804.732 641.34 793.702H641.35Z" fill="#E9F4F9"/>
<path d="M93.6701 519.392L102.68 539.342C119.19 575.882 84.2701 585.692 104.07 624.742C108.31 633.092 108.56 641.562 109.29 650.572L110.55 666.072C111.02 671.872 112.93 680.682 116.54 685.452C123.32 694.412 131.78 702.462 141.2 707.822L160.89 719.032L187.33 735.092L234.52 759.552C243.11 764.002 250.64 769.662 258.67 775.032C277.57 787.652 294.69 801.252 311.5 816.592C328.44 832.052 353.21 852.362 377.72 852.682L446.99 853.572L471.32 857.832C488 860.752 519.54 840.212 536.19 831.022L593.02 799.662C608.23 791.262 622.39 783.402 636.11 772.502C650.3 761.232 664.67 751.412 680.23 741.992C697.42 731.592 713.5 721.022 729.94 709.372C733.87 706.592 736.36 701.642 741.52 701.092C727.77 715.572 711.18 725.652 694.14 736.152C673.27 749.012 653.51 761.562 634.22 776.702C619.28 788.422 603.28 796.402 586.83 805.662L548.94 826.982L506.44 850.032C467.89 870.942 462.45 855.032 441 854.922L373.92 854.562C370.32 854.542 363.82 852.672 360.36 851.612C339.83 845.262 325.45 832.052 310.01 818.152C280.44 791.532 248.41 768.392 212.89 750.982C202.96 746.112 193.93 741.642 184.59 736.152C172.71 729.172 161.76 721.532 149.42 715.132C134.43 707.352 120.29 697.582 112.47 681.972C107.26 671.562 107.85 659.112 107.07 647.512C106.29 635.912 101.17 624.592 97.3401 613.542C90.0901 592.642 104.97 578.672 104.29 557.702C103.86 544.542 97.2001 533.982 92.2101 522.452C81.9901 498.812 87.4801 476.692 75.3601 438.942C66.5301 411.432 57.9501 379.642 62.6201 351.002C71.5401 296.342 160.2 192.752 202.53 156.302C254.12 111.882 292.81 99.192 357.59 84.032C378.84 79.062 399.22 76.842 421.28 77.542C451.13 78.502 460.14 94.9321 510.18 100.072C553.11 104.482 549.72 109.242 582.44 135.662C592.31 143.632 602.31 145.572 615.05 143.702L628.52 141.732C660.96 136.972 694.16 143.342 718.53 165.732C756.45 200.562 749.16 214.382 780.52 247.162C792.04 259.212 803.25 271.182 812.2 285.372C828.41 311.082 846.45 352.372 856.58 381.362C861.79 396.282 863.82 412.222 864.92 428.222L866.59 452.312C869.61 496.042 848.2 494.782 838.97 519.632C827.82 549.662 828.14 546.322 804.51 569.402C785.64 587.822 777.02 613.052 774.06 639.222C773.26 646.332 772.83 652.862 768.35 658.482C774.94 620.872 776.34 591.982 805.25 565.412C828.18 544.342 825.71 546.272 836.7 519.072C846.85 493.952 866.44 491.592 864.68 460.042L863.65 441.652C862.47 420.462 860.7 399.822 853.53 379.612C845.94 358.212 837.23 338.052 827.24 317.772L821.17 305.452C800.14 262.752 774.24 250.292 758.2 222.312C749.17 206.562 740.68 191.912 728.69 178.522C709.27 156.862 684.01 144.162 654.87 142.372C651.02 142.132 646.81 141.842 643.08 142.372L618.85 145.792C611.65 146.812 601.25 146.512 593.98 145.892C583.33 139.632 574.08 132.132 565.14 124.102C532.39 94.6721 505.85 106.312 481.46 97.802L435.37 81.722C411.43 73.372 357 86.212 331.11 92.892C258.85 111.532 217.58 139.932 167.4 194.202C139.64 224.222 114.72 255.382 92.5901 289.832C83.6701 303.712 76.6901 317.982 70.1001 332.942C62.7701 349.572 61.5701 366.022 64.4301 383.982C67.7001 404.502 72.5901 424.212 79.3601 443.792C89.0601 471.852 84.0901 498.182 93.6601 519.372L93.6701 519.392Z" fill="#E9F4F9"/>
<path d="M201.85 193.612C227.46 168.452 254.89 146.122 286.87 129.482C318.4 113.082 345.55 125.972 394.37 105.972C410.29 99.4421 427.87 101.662 443.01 109.382C465.94 121.082 488.5 130.512 514.63 133.472C536.09 135.902 547.13 127.982 561.64 150.172C567.01 158.382 572.9 164.142 582.44 166.422C600.27 170.682 617.76 168.632 636.06 168.162C647.01 167.882 658.83 170.622 669.57 172.022C686.7 174.252 700.36 182.382 712.21 193.472C708.3 186.892 703.06 181.232 694.33 177.332C681.24 171.472 665.93 166.872 650.81 166.622L590.86 165.642C578.21 165.432 568.62 158.172 562.78 147.822C546.02 118.122 522.09 141.532 475.04 121.282C469.73 119.002 462.68 117.002 458 114.012C435.75 99.7921 410.32 95.6121 385.46 106.232C371.14 112.352 356.31 115.402 340.55 116.342L323.57 117.352C303.02 118.572 284.87 126.442 267.66 137.572C232.23 160.462 200.94 187.872 173.76 220.232C163.61 232.312 150.81 241.032 142.37 254.432L175.85 220.962C184.82 211.792 192.63 202.702 201.87 193.622L201.85 193.612Z" fill="#E9F4F9"/>
<path d="M828.91 386.352C820.53 353.532 810.63 362.922 796.64 323.652C792.03 310.722 781.98 301.112 772.91 291.272C762.69 280.182 740 241.282 732.99 225.982C726.81 214.632 722.37 201.632 712.2 193.472C719.59 205.912 726.26 217.302 732.38 229.732C735.5 236.072 738.84 242.662 742.38 248.652L758.73 276.272C773 300.372 786.25 299.842 797.5 332.172C804.86 353.342 820.04 364.812 822.59 373.752L831.12 403.732C834.39 415.232 836.72 426.752 838.98 438.752C842.85 459.382 839.07 479.062 824.75 495.262C815.63 505.582 806.01 515.882 796 525.722C741.36 579.402 764.85 604.032 727.53 665.722L721.75 674.462L705.49 689.442L672.83 713.252C649.96 729.922 627.57 745.172 602.86 759.142C574.2 775.352 548.19 792.642 520.98 811.362C502.54 824.042 480.72 834.492 457.79 834.342C436.81 834.202 418.08 823.732 398.55 818.192C345.88 803.242 343.49 803.422 300.16 770.082C279.67 754.312 260.08 738.952 237.67 725.962C203.26 706.012 175.38 703.852 144.95 677.042C114.68 650.382 131.07 628.002 134.18 590.702C137.88 546.342 124.75 494.562 107.82 453.252C98.39 430.242 92.58 417.362 90.12 391.432C89.1 380.672 88.7 370.672 90.39 359.232C95.76 322.852 113.13 289.312 137.22 261.682C139.6 258.952 140.89 256.772 142.36 254.432C117.1 274.612 95.6 319.672 89.05 351.802C87.59 358.962 87.6 366.212 87.39 373.292C86.72 395.882 90.24 416.972 99.23 438.002C114.72 474.252 126.43 510.762 130.92 550.522C132.53 564.822 133.45 579.792 131.26 594.232L124.31 639.952C122 655.152 131.96 667.612 142.7 677.762C175.66 708.902 216.63 711.032 253.8 738.742L320.93 788.792C342.33 804.752 367 810.692 391.86 818.882L430.72 831.692C462.82 842.272 491.75 834.422 519.23 815.462C549.5 794.572 579.33 775.252 611.3 756.972C627 748.002 641.29 738.812 655.88 728.392L695.01 700.412C703.1 694.632 711.16 688.462 717.56 680.832L717.52 680.892C743.23 657.202 753 598.622 765.36 571.142C786.52 524.092 841.85 502.112 842.48 457.642C842.82 433.382 834.97 410.012 828.93 386.372L828.91 386.352Z" fill="#E9F4F9"/>
<path d="M131.69 338.262C118.1 371.122 119.23 410.992 133.04 443.692C145.67 473.592 157.41 503.662 160.65 536.192L162.77 557.482C164.3 572.792 160.98 599.772 157.58 615.522C145.45 671.722 220 684.532 256.57 705.562C279.97 719.022 300.33 735.132 321.51 751.782C364.08 785.252 381.97 781.462 432.03 799.502C468.79 812.742 495.27 798.432 525.44 777.662C547.31 762.612 568.76 749.002 591.83 735.922C614.94 722.822 635.56 708.502 657.13 693.042C675.52 679.852 694.35 667.682 706.7 648.182C731.51 609.012 724.8 569.162 755.57 536.912L788.29 502.622C813.04 476.682 810.48 456.052 802.82 426.062L794.71 394.322C789.44 373.692 777.67 371.012 767.59 345.182C755.3 313.702 750.26 324.422 729.52 290.222C718.55 272.142 708.84 254.182 699.33 235.512C688.72 214.682 669.68 202.892 647.19 200.522L634.5 199.192C602.54 195.832 613.68 201.932 581.13 198.432C569.71 197.202 560.05 192.852 553.8 182.482C535.25 151.702 517.19 179.462 462.88 153.192C440.34 142.292 422.91 131.442 395.18 143.152C360.65 157.732 335.46 150.252 313.08 158.362C297.83 163.892 285.17 172.512 271.86 181.442C254.72 192.952 240.69 206.752 224.37 219.642C246.28 195.012 272.84 176.142 301.27 160.672C325.94 147.252 356.88 154.472 382.11 145.222C415.07 133.142 425.23 131.342 456.29 147.472C476.87 158.162 504.21 166.032 527.88 164.402C556.13 162.452 552.75 195.382 580.54 195.942L637.06 197.092C648.65 197.322 660.25 200.522 670.7 204.462C686.77 210.522 696.21 224.032 703.79 238.592L714.78 259.702C722.17 273.892 728.75 288.762 739.19 300.862L760.19 325.172C769.02 335.392 770.24 353.182 783.08 367.902C791.44 377.482 795.86 387.342 798.66 399.802C805.72 431.162 820.66 463.472 799.95 491.502C769.67 532.472 741.03 539.082 729.12 597.542C725.75 614.102 719.56 629.182 711.8 644.012C698.55 669.312 669.85 686.632 647.24 702.952C630.56 714.992 614.28 725.732 596.36 735.942C567.53 752.362 540.91 769.832 513.49 788.412C501.17 796.762 487.61 803.672 472.89 805.532C439.82 809.702 427.63 799.052 404.24 792.572L374.19 784.252C368.21 782.592 362.47 779.822 356.76 777.342C340.74 770.382 327.73 759.192 313.85 748.852L275.39 720.232C238.26 692.592 204.05 691.572 172.68 664.612C130.5 628.362 177.03 607.852 154.1 514.012C148.63 491.642 142.16 470.742 132.86 449.722C115.79 411.182 114.51 368.282 132.58 330.122C141.2 311.922 150.42 295.442 164.41 280.962L196.49 247.752C205.52 238.402 212.32 227.762 223.71 220.572C215.93 230.832 207.47 239.242 198.7 248.372L167.42 280.962C151.44 297.602 140.43 317.142 131.69 338.282V338.262Z" fill="#E9F4F9"/>
<path d="M753.02 504.682C775.99 480.352 776.93 463.072 768.89 432.412C765.38 419.002 763.01 405.772 757.8 393.042C754.09 383.982 745.93 376.952 741.75 368.232C733.36 350.732 732.92 344.402 719.84 330.552C705.37 315.232 688.1 284.512 678.58 265.082C673.12 253.932 667.09 242.542 656.61 235.432C647.06 228.952 635.16 224.672 623.38 224.492L567.89 223.612C541.12 223.182 545.1 193.792 521.69 194.982C453.82 198.412 449.87 154.082 396.45 176.392C362.76 190.452 343.37 178.802 315.99 194.982C287.79 211.652 263.59 231.892 241.8 256.232L210.78 290.892C174.12 331.842 158.43 359.712 160.92 416.062C161.45 428.012 165.13 440.142 169.76 451.112C186.06 489.742 203.62 545.052 197.56 586.512L193.05 617.382C187.82 653.142 251.89 678.562 275.99 691.022C254.74 687.782 186.92 649.192 190.25 623.932L195.37 585.062C200.56 545.642 185.07 493.732 169.49 457.332C157.61 429.592 153.99 400.062 161.18 370.602C169.99 334.502 191.83 306.612 217.03 280.382C235.97 260.662 251.86 239.692 273.37 222.372C289.52 209.372 305.09 196.502 324.41 188.112C343.73 179.722 369.16 185.582 401.33 172.082C447.06 152.892 453.41 194.622 520.12 192.142C530.77 191.742 540.14 198.192 544.94 206.622C550.51 216.402 559.4 220.602 570.16 221.682C592.3 223.892 589.31 218.822 617 221.612C637.43 223.672 656.06 225.822 669.7 245.012C681.87 262.142 700.08 304.592 713.75 320.042L728.81 337.072C735.26 344.362 736.6 355.072 741.97 363.542L759.49 391.202C764.04 398.382 776.08 448.552 776.02 463.122C775.88 498.302 733.45 518.252 716.05 553.892C701.96 582.752 704.15 613.412 682.27 643.362C672.98 656.082 660.58 665.222 648.04 674.782C626.83 690.942 606.13 705.822 583.32 719.702C560.11 733.832 538.65 748.372 516.58 764.142C503.87 773.222 490.11 780.562 474.39 782.772C447.45 786.562 429.6 774.042 410.73 769.622C384.99 763.602 362.3 754.642 341.83 737.342C320.93 719.682 284.34 699.552 262.68 684.512C294.3 697.782 334.95 732.122 364.34 750.072C379.99 759.632 397.51 763.282 414.86 768.362C432.21 773.442 447.24 781.362 465.5 781.412C489.33 781.472 512.56 765.022 531 751.132C552.38 735.022 575.06 722.562 597.58 707.982C621.05 692.782 642.23 676.162 664.34 658.982C687.57 640.922 698.74 608.332 704.37 580.162C708.36 560.192 717.31 542.542 731.23 527.792L753.06 504.672L753.02 504.682Z" fill="#E9F4F9"/>
<path d="M729.9 468.192C741.37 443.832 741.08 418.372 730.19 394.692C723.72 380.612 714.71 368.352 705.17 355.942C693.1 340.232 683.19 324.192 673.15 307.192C667.1 296.952 660.87 287.292 653.18 278.432C635.25 257.802 610.8 246.922 583.62 245.922L549.76 244.672C517.05 243.462 522.09 230.622 479.26 222.092C467.87 219.822 457.1 219.802 445.48 218.862L428.76 217.522L410.4 215.902C371.87 212.492 338.14 221.262 305.79 242.682C282.79 257.912 255.73 277.582 238.94 299.182C217.3 327.032 222.37 331.302 206.4 355.082C162.61 420.322 216.7 488.012 219.88 543.732L221.11 565.192L222.09 590.842C222.78 609.022 230.19 626.632 244.12 638.662C252.6 645.982 262.72 650.412 272.2 656.662C256.89 653.042 244 643.642 234.45 631.512C216.05 608.132 219.45 577.322 218.23 549.912C216.24 505.432 192.54 471.312 188.45 428.102C187.4 417.052 187.94 405.752 188.31 394.522C188.96 374.642 206.44 352.822 217.02 330.572C224.1 315.662 232.03 302.192 243.69 289.902C265.08 267.342 290.16 248.522 317.53 233.242C348.98 215.682 376.23 210.802 411.83 213.802L427.38 215.112L457.98 216.602C477.14 217.532 497.43 222.542 514.31 231.252C524.26 236.392 532.19 241.452 543.81 241.822L578.99 242.932C626.44 244.422 653.05 267.072 675.38 306.442C684.99 323.392 694.88 339.042 706.73 354.392C723.96 376.712 738.28 396.322 740.67 425.522C742.43 446.952 734.91 466.992 723.29 484.972C711.64 502.982 701.17 520.452 690.46 538.992C676.34 563.432 666.71 574.792 657.76 603.702C648.91 632.302 632.14 656.342 606.11 672.722L533.47 718.432C466.16 760.782 404.44 755.832 344.98 703.942C322.73 684.522 292.61 665.342 263.91 654.082C270.87 652.432 283.86 661.572 290.14 664.342C333.92 683.662 349.46 711.552 388.14 730.692C406.78 739.912 433.44 746.492 453.58 744.302C491.43 740.172 510.21 730.372 542 710.422L596.27 676.362C626.62 657.312 643.83 639.602 655.03 603.982C662.42 580.472 675.35 560.422 687.59 539.282L702.81 513.002C711.53 497.952 722.19 484.572 729.89 468.222L729.9 468.192Z" fill="#E9F4F9"/>
<path d="M569.15 662.702L520.98 692.622C501.67 704.612 480.21 712.332 457.12 714.122C436.02 715.762 414.9 710.012 396.51 700.202C364.37 683.062 351.8 661.642 316.66 646.022C288.88 633.672 261.17 621.852 258.28 586.542L256.6 566.112L255.61 537.672C254.73 512.402 229.48 478.202 230.75 423.332C231.13 407.152 237.51 393.422 246.49 380.172C257.87 363.392 258.21 350.882 276.08 331.622C301.1 304.642 348.5 269.322 386.74 265.952C401.62 264.642 416.63 265.222 431.49 265.992L459.67 267.452C482.35 268.622 502.31 274.992 521.84 286.562C526.98 289.612 535.54 288.282 541.61 288.642L560.78 289.772C606.2 292.442 623.81 305.532 647.32 345.292C653.54 355.802 659.57 365.862 666.89 375.682C687.02 402.662 709.28 427.962 699.72 465.492C695.65 481.502 685.77 493.922 677.44 507.782L655.84 543.752C646.5 559.302 637.51 573.882 631.54 591.262C617.62 631.742 603.9 641.102 569.13 662.702H569.15ZM582.28 652.222C591.99 646.332 600.09 638.992 608.04 630.792C626.57 611.672 629.52 583.372 639.42 566.822L658.14 535.532C666.27 521.942 673.84 508.832 682.7 495.502C691.76 481.862 699.12 467.752 699.68 450.842C700.28 432.592 693.14 414.832 682.22 400.042C670.12 383.662 658.14 368.162 647.9 350.722C643.42 343.082 639.18 336.002 634.18 328.802C619.14 307.122 596.07 293.192 569.16 292.312L536.41 291.232C525.73 290.882 517.26 287.382 508.44 282.362C480 266.182 455.87 271.542 427.77 268.032C373.17 261.222 338.74 280.582 297.78 313.932C260.28 344.462 264.55 358.582 243.03 390.012C237.08 398.712 234.75 408.262 233.33 418.842C230.4 440.582 235.44 461.912 242.12 482.472L254.4 520.262C256.82 527.712 258.3 536.902 258.54 544.942L259.56 579.312C260.28 603.602 273.07 622.702 295.34 633.482L330.1 650.302C366.15 667.752 407.8 735.632 493.47 703.362C511.72 696.482 527.12 685.672 543.72 675.612L582.26 652.232L582.28 652.222Z" fill="#E9F4F9"/>
<path d="M495.3 676.832C475.72 688.512 446.65 691.832 424.27 689.812C391.15 686.832 362.47 665.882 337.7 645.232C320.66 631.022 303.64 617.882 286 604.672C274.67 596.192 269.03 583.822 268.11 570.092L266.8 550.572C262.75 490.112 239.81 491.722 237.55 451.352C236.26 428.232 241.27 406.922 252.54 386.912C278.3 341.152 313.3 288.542 369.91 280.322L427.02 272.032C462.81 266.832 469.8 287.632 503.2 289.762L521.36 290.922L549.59 292.372C594.76 294.692 618.98 318.952 641.41 355.062L670.02 401.132C691.15 435.152 679.75 468.252 659.43 500.012C641.08 528.692 624.17 556.532 610.06 587.672C603.38 602.422 594.83 615.672 584.49 627.792C575.75 638.032 564.69 644.852 552.26 649.402L523.82 659.822L495.32 676.832H495.3ZM561.99 642.522C590.29 628.912 606.5 590.232 619.48 562.762C637.85 523.882 665.58 496.092 677.77 453.962C685.14 428.492 669.68 403.342 655.73 382.522C638.56 356.882 631.37 337.202 607.58 317.272C594.78 306.552 580.21 297.652 563.16 296.122L548.27 294.782L527.26 293.282C513.92 292.332 499.94 294.372 487.33 289.472L448.67 274.452C438.57 270.532 405.12 278.552 387.79 280.282C372.66 281.792 357.94 283.762 343.73 290.272C301.23 309.742 271.2 354.902 250.79 395.592C244.07 408.982 240.98 422.282 239.56 436.812C235.13 482.272 265.61 491.332 268.37 542.782C271.89 608.192 278.19 591.412 334.35 639.722C348.6 651.982 363.28 662.662 379.39 672.332C400 684.702 431.23 692.012 455.68 687.142C471.3 684.032 487.27 679.662 500.53 670.892C532.71 649.612 535.32 655.352 561.99 642.532V642.522Z" fill="#E9F4F9"/>
<path d="M498.34 661.462C484.65 670.442 468.06 675.972 451.64 677.642C397.32 683.162 366.09 654.732 326.58 622.172C317.77 614.912 308.95 607.582 299.47 601.442C265.07 579.172 281.68 548.272 270.61 514.032C266.08 500.012 258.95 487.912 252.91 474.512C241.09 448.272 247.98 414.382 261.47 389.982C282.22 352.432 309.2 312.332 349.81 294.662C363.21 288.832 377.88 287.592 392.18 285.652L431.86 280.272C444.58 278.542 456.49 281.302 467.09 287.232C485.42 297.482 505 297.442 525.54 298.832L549 300.422C567.49 301.672 582.72 307.512 596.93 318.802C614.58 332.832 626.69 350.442 637.8 369.952C649.53 390.562 676.11 421.442 669.06 449.352C665.85 462.072 662.05 473.562 655.83 484.402C651.34 492.222 647.43 499.822 642.39 507.342C627.17 530.042 614.19 552.862 602.86 577.912C598.3 587.982 592.49 597.322 586.66 606.692C576.3 623.342 561.08 634.702 542.32 640.642C526.25 645.732 512.49 652.182 498.35 661.452L498.34 661.462ZM580.45 611.102C584.34 605.602 588.89 600.082 592.03 593.922L621.07 537.142C625.23 529.012 630.61 521.632 635.59 513.912C656.32 481.802 680.63 443.292 658 406.752L633.85 367.772C611.43 331.582 591.46 305.062 544.86 302.312L523.82 301.072L496.61 299.492C483.99 298.762 471.54 292.082 460.22 286.882C435.64 275.602 417.83 286.532 389.22 288.492C360.83 290.442 335.8 300.362 315.41 320.492C303.89 331.862 292.99 343.242 284.19 356.982C264.09 388.342 248.29 410.872 249.59 449.162C250.06 463.042 254.79 476.182 261.81 488.122C277.93 515.542 276.05 532.412 278.88 563.142C281.22 588.602 294.06 593.642 313.94 609.272L364.52 649.042C383.57 664.022 404.98 673.502 429.52 675.912C459.31 678.832 487.27 667.552 511.62 650.642C528.33 639.042 560.09 639.922 580.46 611.092L580.45 611.102Z" fill="#E9F4F9"/>
<path d="M559.48 621.022C546.05 631.232 522.73 633.632 507.18 644.512C479.13 664.132 444.63 673.212 411.04 663.472C389.14 657.122 371.04 644.452 353.36 630.422L300.27 588.292C290.57 580.602 286.5 570.412 285.58 558.542L284.16 540.142L282.64 523.532C280.39 498.962 260.52 481.042 257.79 453.152C255.93 434.172 259.88 414.512 269.06 397.632C286.36 365.812 300.18 343.662 327.65 320.012C341.83 307.812 358.02 300.222 376.37 297.402L423.89 290.112C464.3 283.912 463.59 303.502 499.6 305.452L521.18 306.622C525.59 306.862 532.19 308.272 536.12 308.182C563.06 307.552 584.92 318.312 602.87 337.562C613.65 349.122 621.29 362.322 629.72 375.912L648.83 406.732C665.98 434.382 659.06 462.362 642.66 488.942L614.36 534.822L587.12 587.892C580.45 600.892 571.11 612.162 559.51 620.982L559.48 621.022ZM517.55 635.782C530.92 631.592 543.45 627.592 554.93 620.792C578.85 606.612 592.45 573.232 604.2 548.782C619.84 516.212 655.44 475.852 656.8 441.312C657.31 428.462 651.54 415.582 644.7 404.562L622.72 369.102C611.75 351.412 599.51 335.272 582.44 323.382C570.54 315.092 558.09 311.942 543.91 310.962L527.04 309.802L499.79 308.392C482.78 307.512 468.62 298.762 452.93 293.622C437.97 288.722 421.63 293.312 406.62 295.492L374.54 300.152C325.68 307.242 288.16 363.392 268.45 404.462C261.25 419.482 259.45 434.302 260.09 451.072C261.28 482.392 283.37 493.472 285.69 531.372C287.39 559.192 285.67 576.772 308.4 592.332C337.16 612.022 364.68 639.962 393.3 654.082C424.66 669.552 463.82 667.822 493.25 650.282L517.56 635.792L517.55 635.782Z" fill="#E9F4F9"/>
<path d="M613.65 373.562C593.85 341.582 575.83 320.902 537.72 317.552L521.02 316.082L497.92 314.772C466.99 313.012 453.6 296.402 436.76 298.842L376.83 307.522C348.89 311.572 322.75 335.692 306.5 357.642C284.44 387.452 255.6 434.262 273.64 472.122L287.37 500.932C292.25 511.182 292.44 521.912 293.64 533.132L294.33 539.562C295.39 549.472 294.39 560.642 299.55 569.832C306.74 582.632 348.39 607.962 360.17 622.512C348.3 615.842 336.66 604.662 326.01 596.492C315.52 588.442 303.62 581.392 296.8 569.112C287.1 551.642 300.83 525.672 274.3 479.122C267.68 467.502 265.25 452.312 266.3 439.632C268.42 413.942 277.22 398.112 290.58 376.782C299.36 362.772 308.51 349.542 320.2 337.772C346.61 311.192 365.09 305.062 402.78 301.122C430.75 298.202 441.24 291.122 468 304.992C480.32 311.372 491.5 312.162 505.05 312.892L523.26 313.882L535.78 314.652C573.97 316.992 595.69 339.502 614.46 370.462L640.8 413.912C660.37 446.192 636.19 480.992 619.16 508.652L606.38 529.422L580.45 579.782C575.61 589.182 569.36 598.052 562.15 605.662C546.58 622.102 516.24 626.342 506.28 633.602C456.66 669.782 399.76 662.712 357.05 619.852L386.58 639.572C400.13 648.622 423.19 655.272 439.05 654.532C491.12 652.112 491.12 632.892 525.91 622.712C542.2 617.942 556.13 610.262 566.67 596.482C576.7 583.372 584.34 569.002 591.03 553.672C613.58 501.922 666.36 458.712 636.03 409.712L613.64 373.542L613.65 373.562Z" fill="#E9F4F9"/>
<path d="M481.94 634.092C516.59 625.142 546.69 604.382 567.3 575.942C577.55 561.792 583.24 546.182 590.96 530.932C599.03 514.992 607.47 500.382 617.26 485.522C633.76 460.462 641.38 439.432 628.32 409.832C620.1 393.732 602.1 374.122 589.99 359.082C603.42 369.352 620.25 390.812 628.83 406.252C643.61 432.852 638.07 458.392 621.85 482.552C606.77 505.012 594.43 527.712 583.65 552.462C562.16 601.802 506.53 639.842 453.01 641.022C430.76 641.512 400.17 630.822 380.35 619.932C366.75 612.462 354.22 604.932 341.42 596.272C331.66 589.662 324.07 581.182 316.91 571.782C291.52 538.432 310.16 550.292 296.36 507.302C287.44 479.522 272.08 418.612 287.89 393.642C297.82 377.962 308.58 362.962 320.35 348.812C331.03 335.972 344.38 325.072 360.05 319.952C378.77 313.832 397.15 309.522 416.69 306.452C439.99 302.792 469.26 313.052 491.45 316.462C506.97 318.852 519.67 316.422 530.48 323.562C554.73 339.562 563.28 325.592 580.14 345.442L596.87 365.152C581.18 356.992 580.51 338.842 557.85 335.422C551.74 334.502 542.12 333.882 537.43 330.572C515.77 315.252 511.45 322.302 486.85 317.962C466.88 314.442 447.83 308.052 427.25 307.942C408.84 307.852 391.6 314.282 373.86 318.112C352.82 322.662 335.96 333.892 321.71 350.222C314.91 358.012 309.8 367.132 303.12 375.702C295.83 385.062 287.03 395.252 285.2 407.652C281.51 432.642 284.57 457.482 291.4 481.452L303.25 523.042C305.92 532.432 302.46 544.822 307.69 553.912C316.13 568.572 326.74 582.522 340.39 592.402C357.96 605.102 375.97 615.442 395.44 624.482C409.44 630.992 423.59 634.952 438.89 637.492C452.95 639.832 466.79 637.992 481.97 634.072L481.94 634.092Z" fill="#E9F4F9"/>
<path d="M337.13 573.142C348.74 587.382 396.56 613.352 416.86 619.762C432.07 624.562 447.5 627.752 463.14 625.572C512.07 618.752 553.21 588.412 573.21 543.682C583.54 520.572 595.1 499.792 609.07 478.932C616.41 467.962 620.75 455.882 621.67 442.552C622.83 425.732 611.2 407.532 602.42 392.002C612.41 400.892 621.57 420.162 623.57 433.992C627.2 459.022 612.44 478.142 599.57 498.312C589.87 513.502 582.29 528.902 574.97 545.402C562.04 574.542 540.43 597.262 512.23 612.132C468.98 634.932 430.35 632.922 387.43 609.752C375.97 603.562 346.81 587.092 339.45 578.492L322.61 558.812C313.57 548.252 313.96 535.862 312.42 522.592C311.32 513.142 307.71 503.332 304.93 493.942C297.26 468.042 292.75 441.992 295.28 415.062C296.95 397.222 310.5 385.592 322.7 367.612C346.59 332.412 376.18 326.212 416.91 319.132C435.48 315.902 453.56 320.302 471.46 324.422C485.35 327.612 511.4 328.592 513.74 329.632L539.93 341.272C546.31 344.102 554.75 343.002 560.93 346.312C568.93 350.602 574.17 358.712 579.97 365.202C586.97 373.042 601.63 389.382 607.38 398.282C596.66 389.252 581.28 369.662 572.25 359.172C552.49 336.192 550.42 354.472 521.5 335.372C512.76 329.592 501.16 332.252 491.32 330.342L445.48 321.452C435.42 319.502 425.14 319.212 415.18 321.452L391.51 326.772C356.35 334.682 342.69 343.512 321.05 373.662L304.45 396.782C290.42 416.332 298.2 458.622 303.91 481.202C307.43 495.102 312.56 508.762 315.34 522.742C317.78 535.032 315.34 546.432 324.26 557.372L337.11 573.132L337.13 573.142Z" fill="#E9F4F9"/>
<path d="M329.17 492.532C331.52 500.322 335.17 509.942 335.38 517.652C335.71 529.712 337.36 538.172 344.81 547.462C353.59 558.422 363.27 568.282 375.77 575.642C397.93 588.702 427.43 606.012 454.96 604.572C496.57 602.392 535.53 577.282 553.95 539.902C563.31 520.892 571.07 503.542 582.81 485.992C597.02 464.752 605.5 446.432 593.24 422.122C585.34 406.442 573.72 394.442 562 381.822C556.79 376.212 551.95 368.952 545.11 365.302C539.89 362.512 531.31 363.662 526.24 361.352L503.91 351.152C499.65 349.212 491.57 351.462 486.78 350.552L434.93 340.682L402.81 346.992C377.57 351.952 357.4 363.422 341.94 384.352C349.58 367.092 366.48 353.912 384.64 349.342L421.39 340.082C443.14 334.602 467.62 348.052 500.55 348.892C509.56 349.122 516 356.342 524.51 358.312L545.6 363.192C552.03 364.682 584.04 403.352 589.9 411.662C605.02 433.102 604.68 458.032 589.84 479.682C579.11 495.332 569.65 511.642 562.05 529.242C548.68 560.232 526.94 583.792 495.78 597.432C449.43 617.722 415.7 602.362 375.89 578.572C358.48 568.172 344.52 553.652 334.59 535.892C334.35 522.302 332.5 509.612 328.12 496.822C320.04 473.242 316.23 448.812 317.92 423.952C318.52 415.112 322.84 407.192 328.03 400.692L341.76 383.512C340.17 388.522 337.14 393.882 334.07 397.002C319.87 411.392 317.77 428.782 320.03 447.842C321.86 463.282 324.67 477.662 329.17 492.552V492.532Z" fill="#E9F4F9"/>
<path d="M494.01 563.722C507.83 559.992 517.16 551.862 523.39 539.252C526.44 533.072 533.76 526.902 536.06 520.682C539.81 510.572 544.78 505.282 551.7 497.302C561.9 485.552 567.58 468.112 570.44 452.662C572.4 442.112 565.86 433.512 564.91 423.112C578.51 442.412 571.99 463.052 563.29 483.222C560.25 490.272 556.26 497.462 550.28 502.222C543.85 507.332 542.57 514.842 538.44 521.062L518.43 551.192C510.84 562.622 496.65 565.872 484.09 568.812C442.07 578.642 412.92 579.172 381.75 548.422C372.46 539.252 367.28 530.262 363.14 517.792L352.93 487.052C349.63 477.102 348.54 467.302 347.17 457.522C345.13 442.952 347.35 433.002 353.73 420.052C358.67 410.042 360.11 397.752 368.22 388.792C386.44 368.652 411.35 374.052 426.99 368.312C435.1 365.332 442.66 362.572 451.9 364.152C478.65 368.742 484.12 377.182 504.09 378.712C514.96 379.542 524.92 381.842 535.13 385.442L540.66 390.372C524.21 378.342 500.94 381.822 496.44 380.302C479.46 374.592 464.68 368.292 447.02 365.452C442.41 364.712 437.46 366.692 433.31 368.612C416.88 376.232 391.09 370.152 372.07 388.332C369.01 391.262 364.5 397.642 363.08 401.562L350.46 436.402C347.79 443.762 348.92 457.602 350.33 465.562C354.9 491.332 362.55 503.632 368.31 525.332C370.53 533.712 376.86 539.602 382.64 545.922C414.69 581.002 452.97 574.752 494.02 563.672L494.01 563.722Z" fill="#E9F4F9"/>
<path d="M520.85 501.622C533.16 473.442 547.01 469.062 542.29 438.192C539.58 420.472 520.35 407.182 500.85 403.492C512.24 401.632 529.54 409.302 536.6 418.002C544.03 427.152 544.48 439.332 544.93 450.862C545.81 473.302 530.45 481.632 523.56 501.132C513.62 529.262 491.02 546.772 461.33 549.412C429.97 552.202 404.26 544.322 393.3 512.172C390.3 503.382 386.7 494.922 382.32 486.502C375.98 474.322 368.24 460.022 373.67 445.802L385.86 413.862C388.67 406.492 397.57 401.482 404.85 399.762L439.54 391.582C448.26 389.522 457.03 395.782 465.15 397.682C473.27 399.582 481.75 400.742 490.09 401.602L505.09 403.142C490.38 404.662 476.15 403.302 462.28 399.102C455.74 397.122 448.51 392.682 441.82 393.682C425.81 396.082 392.35 401.142 387.15 416.902C374.07 456.562 366.59 447.642 385.13 486.842C388.73 494.452 392.62 501.712 394.62 509.222C401.55 535.152 424.39 548.332 450.13 547.592C472.84 546.942 495.12 540.982 509.36 522.402C514.33 515.922 517.6 509.042 520.84 501.622H520.85Z" fill="#E9F4F9"/>
<path d="M465.74 524.712C505.07 519.132 503.54 494.762 509.56 481.212L518.32 461.492C524.58 447.392 517.12 433.642 502.87 428.422C494.69 425.422 485.38 426.712 476.58 425.522L450.2 421.982C434.15 419.822 416.22 426.722 408.43 441.382C405.07 447.702 404.6 455.422 401.55 462.532C401.73 471.612 406.55 479.382 412.12 487.862C404.06 483.412 401.75 474.302 398.23 465.822C407.58 438.512 403.68 428.732 436.63 420.732C459.5 415.182 458.12 424.972 485.25 423.532C499.37 422.782 514.88 427.412 520.59 441.542C523.19 447.972 522.37 458.932 519.32 465.312C514.2 476.052 510.39 486.142 506.94 497.102C499.98 519.202 477.92 528.232 456.31 527.672C441.46 527.282 426.62 523.912 422.36 507.602C420.47 500.372 416.56 494.392 411.72 486.802C415.73 489.102 419.03 492.782 421.49 496.722C423.2 502.982 425.17 510.142 428.55 515.062C435.3 524.892 457.73 525.862 465.77 524.722L465.74 524.712Z" fill="#E9F4F9"/>
<path d="M500.78 495.552C492.79 511.732 475.23 518.912 457.71 518.202C444.46 517.662 435.72 508.862 431.18 497.002C429.01 491.342 423.98 485.912 420.18 480.682C412.82 470.542 410.96 455.702 418.52 445.512C425.63 435.922 436.81 429.622 449.4 430.432L491.22 433.132C498.74 433.622 503.47 441.142 505.2 447.752C506.86 454.132 506.2 459.892 505.53 466.412C504.54 476.122 505.19 486.622 500.78 495.552ZM502.53 478.412L503.75 455.382C504.06 449.482 502.11 442.502 498.15 438.792C494.12 435.022 488.03 434.042 482.23 434.172C472.18 434.392 463.13 433.832 453.32 432.742C437 430.922 420.45 439.482 416.92 455.222C414.47 466.172 418 474.932 424.73 482.602C438.87 498.722 430.91 509.422 458.56 516.522C469.93 516.072 482.02 511.492 491.41 505.152C498.25 496.502 501.98 488.742 502.53 478.422V478.412Z" fill="#E9F4F9"/>
<path d="M483.48 498.022C476.92 504.932 469.38 508.592 458.81 507.422C451.51 506.612 445.76 500.002 443.43 492.752C435.22 467.212 420.88 470.912 425.5 455.802C427.95 447.792 432.9 443.622 440.31 440.912C449.2 437.662 456.78 438.822 466.16 441.032C472.62 442.552 481.23 441.432 488.24 442.022C495.92 442.662 498.47 451.722 496.8 457.942C491.54 477.542 496.64 484.172 483.48 498.032V498.022ZM491.37 469.182C493.84 461.772 495.62 454.832 493.61 448.472C492.19 443.972 485.25 442.972 481.37 443.752C465.17 447.022 455.9 437.062 438.96 444.172C433.63 446.412 429.44 450.152 428.32 454.432C426.78 460.302 427.16 465.602 431.82 469.242C445.22 479.712 445.23 505.702 460.79 505.602C479.84 505.472 493.36 487.742 491.36 469.182H491.37Z" fill="#E9F4F9"/>
<path d="M478.08 464.992C484.06 476.412 469.91 488.662 464.69 488.992C456.47 489.502 454.06 476.632 444.84 463.902C443.89 462.592 442.92 460.732 442.62 459.662C442.24 458.322 446.17 455.352 447.69 455.392C452.03 455.532 477.31 461.302 478.09 464.992H478.08ZM464.46 485.742C473.25 484.222 479.83 473.892 476.4 465.452C471.03 463.472 449.17 455.082 446.04 458.492C442.91 461.902 449.67 464.632 454.55 475.532C456.26 479.352 458.27 486.822 464.46 485.742Z" fill="#E9F4F9"/>
<path d="M462.66 479.132C459 478.102 455.38 468.162 457.44 465.182C458.37 463.832 462.34 463.362 463.9 464.022C468.38 465.902 471.83 468.742 471.15 472.592C470.61 475.692 466.46 480.212 462.65 479.142L462.66 479.132ZM467.92 469.542C466.56 468.352 463.96 467.182 461.38 466.402C460.41 466.112 459.51 467.052 459.82 468.022L462.1 475.132C462.3 475.772 462.97 476.132 463.62 475.952C464.9 475.592 466.32 475.132 467.11 474.812C468.16 474.382 468.8 470.312 467.92 469.542Z" fill="#E9F4F9"/>
<path d="M566.45 430.632C566.39 430.482 558.54 412.042 550.39 400.312C542.84 389.442 535.03 387.902 537.42 388.262L534.73 385.322C535.38 385.302 544.41 386.102 553.01 398.492C561.37 410.532 567.58 427.202 567.82 427.822L566.44 430.632H566.45Z" fill="#E9F4F9"/>
<path d="M263.84 127.662C227.57 151.252 195.56 179.492 167.73 212.842C157.34 225.292 144.24 234.282 135.6 248.082L169.87 213.592C179.05 204.142 187.04 194.782 196.5 185.422C222.71 159.492 250.78 136.482 283.52 119.342C315.79 102.442 343.58 115.732 393.54 95.1121C409.84 88.3921 427.83 90.6721 443.32 98.6321C466.79 110.692 489.88 120.402 516.62 123.452C538.59 125.962 549.88 117.802 564.73 140.652C570.23 149.112 576.25 155.052 586.02 157.402C604.27 161.792 622.17 159.682 640.9 159.192C652.1 158.902 664.21 161.732 675.2 163.172C692.73 165.472 706.71 173.852 718.84 185.272C714.84 178.492 709.47 172.662 700.54 168.642C687.15 162.602 671.48 157.862 656 157.612L594.64 156.602C581.69 156.392 571.88 148.902 565.9 138.242C548.75 107.632 524.25 131.762 476.1 110.892C470.67 108.542 463.45 106.482 458.66 103.392C435.88 88.7421 409.86 84.4321 384.41 95.3721C369.75 101.672 354.58 104.822 338.44 105.792" fill="#E9F4F9"/>
<path d="M838.3 384.042C829.72 350.222 819.59 359.892 805.27 319.432C800.56 306.112 790.27 296.212 780.98 286.062C770.52 274.632 747.3 234.552 740.12 218.782C733.79 207.092 729.25 193.692 718.84 185.282C726.4 198.102 733.23 209.842 739.5 222.652C742.7 229.192 746.11 235.982 749.74 242.152L766.47 270.612C781.07 295.442 794.64 294.892 806.15 328.212C813.69 350.022 829.22 361.842 831.82 371.062L840.55 401.952C843.9 413.802 846.29 425.672 848.59 438.032C852.55 459.292 848.68 479.572 834.02 496.262C824.68 506.892 814.84 517.512 804.59 527.652C748.67 582.972 772.7 608.352 734.51 671.912L728.6 680.912L711.96 696.352L678.53 720.882C655.12 738.062 632.2 753.772 606.91 768.172C577.57 784.882 550.95 802.692 523.1 821.982C504.23 835.052 481.89 845.822 458.43 845.662C436.95 845.512 417.78 834.732 397.8 829.022C343.9 813.612 341.45 813.802 297.1 779.442C276.13 763.192 256.07 747.362 233.14 733.982C197.92 713.422 169.38 711.192 138.24 683.572C107.26 656.092 124.03 633.042 127.22 594.602C131.01 548.892 117.57 495.532 100.25 452.962C90.6001 429.252 84.6501 415.982 82.1401 389.262C81.1001 378.172 80.6801 367.862 82.4101 356.082C87.9101 318.592 105.68 284.032 130.34 255.552C132.78 252.732 134.09 250.492 135.6 248.082C109.75 268.882 87.7401 315.312 81.0301 348.412C79.5401 355.782 79.5401 363.262 79.3301 370.552C78.6501 393.832 82.2501 415.562 91.4501 437.232C107.3 474.592 119.29 512.212 123.89 553.182C125.54 567.912 126.48 583.352 124.23 598.232L117.12 645.342C114.75 661.012 124.95 673.842 135.95 684.302C169.68 716.392 211.62 718.582 249.66 747.132L318.36 798.702C340.27 815.152 365.51 821.262 390.96 829.712L430.73 842.912C463.58 853.812 493.19 845.732 521.32 826.192C552.3 804.672 582.83 784.752 615.55 765.922C631.61 756.672 646.25 747.212 661.17 736.472L701.22 707.642C709.5 701.682 717.75 695.332 724.3 687.462L724.26 687.532C750.58 663.112 760.58 602.752 773.23 574.432C794.88 525.952 851.52 503.292 852.17 457.482C852.52 432.482 844.49 408.402 838.3 384.032V384.042Z" fill="#E9F4F9"/>
</svg>
