<svg width="80" height="44" viewBox="0 0 80 44" fill="none" xmlns="http://www.w3.org/2000/svg">
<path d="M79.5003 42.9274C79.7764 42.9274 80.0003 43.1512 80.0003 43.4274C80.0003 43.7035 79.7764 43.9274 79.5003 43.9274H0.661391C0.385249 43.9274 0.161391 43.7035 0.161391 43.4274C0.161391 43.1512 0.385249 42.9274 0.661391 42.9274H79.5003Z" fill="white"/>
<path d="M20.557 16.4783C21.8287 14.5817 24.3272 13.9504 26.348 15.0154L31.1927 17.5691C31.8504 17.9158 32.6141 17.9997 33.3314 17.8035L39.5863 16.0945L39.8929 16.0193C41.4355 15.6844 43.0519 15.9743 44.3861 16.8337L48.0092 19.1677C48.9154 19.752 50.0772 19.7701 51.0013 19.2136L56.8597 15.6902C57.4429 15.3397 58.0789 14.9693 58.683 14.8913C59.0078 14.8495 59.3435 14.8874 59.6615 15.0613C59.9722 15.2312 60.2236 15.5069 60.431 15.864L64.7552 23.1872L64.7582 23.1912C65.308 24.1412 66.6556 24.2102 67.2992 23.321L70.309 19.1677C70.9109 18.3384 71.9336 17.9275 72.9408 18.1072L78.7308 19.1501C79.0025 19.1991 79.1838 19.4586 79.1351 19.7302C79.0862 20.002 78.8258 20.1825 78.5541 20.1335L72.765 19.0915C72.1347 18.9792 71.4951 19.2358 71.1185 19.7546L68.1088 23.9079C67.0399 25.3841 64.8041 25.2685 63.892 23.6921L59.5697 16.3728L59.5677 16.3689C59.4214 16.1164 59.2869 15.9971 59.181 15.9392C59.0813 15.8847 58.9669 15.8625 58.8109 15.8826C58.4535 15.9286 58.0023 16.1693 57.3744 16.5466L51.517 20.0701C50.2663 20.8232 48.695 20.7994 47.4681 20.0085L43.8441 17.6736C42.6599 16.9109 41.2089 16.6873 39.85 17.0583L33.5951 18.7683C32.6328 19.0315 31.6086 18.9185 30.7269 18.4538L25.8812 15.9001C24.3131 15.0738 22.3749 15.5635 21.3881 17.0349L16.7924 23.8894C15.7861 25.3914 13.5866 25.4102 12.5531 23.9314L7.59509 17.0495L7.58923 17.0417C7.44532 16.8346 7.34257 16.7597 7.28552 16.7322C7.2434 16.7119 7.19773 16.7027 7.10876 16.7234C7.00256 16.7481 6.86361 16.8083 6.66052 16.9206C6.5619 16.9752 6.45737 17.0372 6.33923 17.1062C6.22291 17.1742 6.09537 17.2485 5.95935 17.324L0.743529 20.2224C0.502144 20.3565 0.196983 20.2695 0.0628649 20.0281C-0.0711079 19.7868 0.0161432 19.4826 0.257201 19.3484L5.474 16.4499C5.59927 16.3804 5.71851 16.3112 5.83533 16.2429C5.95034 16.1757 6.06597 16.1071 6.17712 16.0456C6.39363 15.9259 6.63356 15.8066 6.8822 15.7488C7.14766 15.6871 7.43385 15.6929 7.72009 15.8308C7.99167 15.9616 8.21473 16.1881 8.4115 16.4714L13.3646 23.3474L13.3695 23.3542C13.9997 24.2616 15.3461 24.2511 15.9613 23.3328L20.557 16.4783Z" fill="white"/>
<path d="M0.865082 1.87481C10.3158 -0.465324 17.6943 -0.195813 22.617 0.456839C27.8866 1.1538 35.2974 3.28687 49.9998 7.51543C54.093 8.69303 54.2193 8.76406 55.3885 9.0252C64.5423 11.0707 72.4973 10.1709 77.9334 9.02422C78.2036 8.96723 78.4692 9.13977 78.5262 9.40996C78.5832 9.68009 78.4106 9.94567 78.1405 10.0027C72.6156 11.1682 64.5078 12.0872 55.1707 10.0008C53.9622 9.73088 53.7807 9.64364 49.7235 8.47637C34.9768 4.23509 27.6606 2.13249 22.4852 1.44805C17.6641 0.808879 10.4143 0.54046 1.10532 2.84551C0.837276 2.91187 0.566218 2.74832 0.499847 2.48028C0.433611 2.2123 0.597104 1.94116 0.865082 1.87481Z" fill="white"/>
<path d="M11.1772 31.3458C10.4063 30.5872 9.26757 30.286 8.26119 30.6056C8.02894 30.6794 7.87393 30.895 7.79927 31.2091C7.72494 31.5218 7.74706 31.8736 7.81783 32.1055C7.97719 32.6284 8.3916 32.9161 8.95455 33.0304C9.52465 33.146 10.2166 33.0741 10.8364 32.8907C11.4872 32.6974 11.6929 31.8663 11.2026 31.3712L11.1772 31.3458Z" fill="white"/>
<path d="M16.5222 37.8091C15.5165 37.4896 14.3781 37.7898 13.6072 38.5473L13.5808 38.5747C13.0905 39.0698 13.2961 39.9009 13.947 40.0942C14.5668 40.2776 15.2587 40.3496 15.8289 40.2339C16.3918 40.1196 16.8062 39.8319 16.9656 39.3091C17.0363 39.0771 17.0585 38.7253 16.9841 38.4126C16.9188 38.1376 16.7926 37.9382 16.6062 37.8432L16.5222 37.8091Z" fill="white"/>
<path d="M34.8375 25.5338C33.8318 25.2143 32.6934 25.5145 31.9225 26.2721L31.8961 26.2994C31.4058 26.7945 31.6114 27.6257 32.2624 27.8189C32.8821 28.0024 33.5741 28.0743 34.1442 27.9586C34.7071 27.8443 35.1215 27.5566 35.2809 27.0338C35.3517 26.8018 35.3738 26.45 35.2995 26.1373C35.2341 25.8624 35.1079 25.6629 34.9215 25.568L34.8375 25.5338Z" fill="white"/>
<path d="M22.5965 32.5287C21.8255 31.7701 20.6868 31.4689 19.6805 31.7885C19.4482 31.8623 19.2932 32.0779 19.2185 32.392C19.1442 32.7047 19.1663 33.0565 19.2371 33.2885C19.3965 33.8113 19.8109 34.099 20.3738 34.2133C20.9439 34.3289 21.6359 34.257 22.2556 34.0736C22.9065 33.8803 23.1122 33.0492 22.6219 32.5541L22.5965 32.5287Z" fill="white"/>
<path d="M26.0452 21.1063C25.0394 20.7869 23.9011 21.0871 23.1301 21.8446L23.1038 21.8719C22.6134 22.3671 22.819 23.1982 23.47 23.3915C24.0897 23.5749 24.7817 23.6468 25.3518 23.5311C25.9148 23.4168 26.3292 23.1292 26.4885 22.6063C26.5593 22.3743 26.5814 22.0226 26.5071 21.7098C26.4417 21.4349 26.3155 21.2354 26.1291 21.1405L26.0452 21.1063Z" fill="white"/>
<path d="M31.6973 36.4609C30.9264 35.7023 29.7877 35.4011 28.7813 35.7207C28.549 35.7945 28.394 36.0102 28.3194 36.3242C28.245 36.6369 28.2672 36.9887 28.3379 37.2207C28.4973 37.7435 28.9117 38.0312 29.4746 38.1455C30.0448 38.2611 30.7368 38.1892 31.3565 38.0058C32.0073 37.8125 32.213 36.9814 31.7227 36.4863L31.6973 36.4609Z" fill="white"/>
<path d="M48.3523 27.994C47.5814 27.2354 46.4427 26.9341 45.4363 27.2537C45.2041 27.3276 45.0491 27.5432 44.9744 27.8572C44.9001 28.17 44.9222 28.5217 44.993 28.7537C45.1523 29.2766 45.5667 29.5643 46.1297 29.6785C46.6998 29.7942 47.3918 29.7223 48.0115 29.5389C48.6624 29.3455 48.8681 28.5144 48.3777 28.0194L48.3523 27.994Z" fill="white"/>
<path d="M51.2135 36.3115C50.2078 35.992 49.0694 36.2922 48.2985 37.0497L48.2721 37.0771C47.7818 37.5722 47.9874 38.4033 48.6383 38.5966C49.2581 38.78 49.95 38.8519 50.5202 38.7363C51.0831 38.622 51.4975 38.3343 51.6569 37.8115C51.7276 37.5795 51.7498 37.2277 51.6754 36.915C51.6101 36.64 51.4839 36.4406 51.2975 36.3456L51.2135 36.3115Z" fill="white"/>
<path d="M63.2427 29.6762C62.2369 29.3568 61.0986 29.657 60.3276 30.4145L60.3013 30.4419C59.8109 30.937 60.0166 31.7681 60.6675 31.9614C61.2873 32.1448 61.9792 32.2167 62.5493 32.1011C63.1123 31.9868 63.5267 31.6991 63.686 31.1762C63.7568 30.9443 63.7789 30.5925 63.7046 30.2798C63.6392 30.0048 63.513 29.8054 63.3267 29.7104L63.2427 29.6762Z" fill="white"/>
<path d="M59.3719 22.6592C58.3662 22.3398 57.2278 22.64 56.4569 23.3975L56.4305 23.4248C55.9401 23.9199 56.1458 24.7511 56.7967 24.9444C57.4165 25.1278 58.1084 25.1997 58.6785 25.084C59.2415 24.9697 59.6559 24.6821 59.8153 24.1592C59.886 23.9272 59.9081 23.5754 59.8338 23.2627C59.7685 22.9878 59.6422 22.7883 59.4559 22.6934L59.3719 22.6592Z" fill="white"/>
<path d="M75.8405 22.6592C74.8347 22.3398 73.6964 22.64 72.9254 23.3975L72.8991 23.4248C72.4087 23.9199 72.6143 24.7511 73.2653 24.9444C73.885 25.1278 74.577 25.1997 75.1471 25.084C75.7101 24.9697 76.1245 24.6821 76.2838 24.1592C76.3546 23.9272 76.3767 23.5754 76.3024 23.2627C76.237 22.9878 76.1108 22.7883 75.9244 22.6934L75.8405 22.6592Z" fill="white"/>
<path d="M78.1615 34.3472C77.3906 33.5886 76.2519 33.2873 75.2455 33.6069C75.0132 33.6807 74.8582 33.8964 74.7836 34.2104C74.7092 34.5232 74.7314 34.8749 74.8021 35.1069C74.9615 35.6298 75.3759 35.9174 75.9389 36.0317C76.509 36.1474 77.201 36.0755 77.8207 35.8921C78.4715 35.6987 78.6772 34.8676 78.1869 34.3725L78.1615 34.3472Z" fill="white"/>
<path d="M6.96024 24.6793C6.18932 23.9207 5.05061 23.6195 4.04423 23.9391C3.81198 24.0129 3.65697 24.2286 3.58231 24.5426C3.50798 24.8553 3.53011 25.2071 3.60087 25.4391C3.76024 25.9619 4.17464 26.2496 4.73759 26.3639C5.30769 26.4795 5.99969 26.4077 6.61942 26.2242C7.27025 26.0309 7.47597 25.1998 6.98563 24.7047L6.96024 24.6793Z" fill="white"/>
</svg>
