<svg width="66" height="71" viewBox="0 0 66 71" fill="none" xmlns="http://www.w3.org/2000/svg">
<path fill-rule="evenodd" clip-rule="evenodd" d="M22.32 24.0078L22.1302 23.8215L22.0978 24.1721L22.32 24.0078Z" fill="white"/>
<path fill-rule="evenodd" clip-rule="evenodd" d="M22.1302 23.8215L22.0978 24.1721L22.32 24.0078L22.1302 23.8215Z" fill="white"/>
<path fill-rule="evenodd" clip-rule="evenodd" d="M61.0523 68.9583C61.3827 68.6431 61.6102 68.2426 61.7105 67.8073C61.3825 68.064 61.0452 68.3187 60.7124 68.5567C60.4817 68.7217 60.2532 68.8787 60.0314 69.0229C59.7645 69.1963 59.5109 69.3487 59.2775 69.4737C59.0281 69.6073 58.8017 69.7095 58.6066 69.7729L58.6876 70.0229L58.7687 70.2719C59.2143 70.1273 59.7563 69.827 60.3175 69.4623C60.5577 69.3062 60.8044 69.1363 61.0523 68.9583Z" fill="white"/>
<path fill-rule="evenodd" clip-rule="evenodd" d="M61.7105 67.8073C61.6102 68.2426 61.3827 68.6431 61.0523 68.9583C60.9679 69.0389 60.8768 69.1139 60.7793 69.1825C60.2723 69.5397 59.574 69.9694 58.7687 70.2719L58.6876 70.0229L58.6066 69.7729C58.8017 69.7095 59.0281 69.6073 59.2775 69.4737C59.7364 69.2451 60.1445 68.9878 60.4766 68.7538L60.6504 68.6151C60.6716 68.5961 60.6922 68.5766 60.7124 68.5567C61.0452 68.3187 61.3825 68.064 61.7105 67.8073ZM49.8404 70.3184C49.8259 70.3186 49.8122 70.3187 49.7992 70.3187C49.811 70.3187 49.8273 70.3186 49.8404 70.3184ZM41.8109 32.8806L41.8012 32.886C41.8044 32.8841 41.8076 32.8822 41.8109 32.8806Z" fill="white"/>
<path fill-rule="evenodd" clip-rule="evenodd" d="M22.1302 23.8215L22.32 24.0078L22.0978 24.1721L22.1302 23.8215ZM22.32 24.0078L28.9587 19.0999C29.2118 18.9127 29.265 18.5561 29.0779 18.303C28.8907 18.05 28.5341 17.9968 28.281 18.1839L22.2386 22.6506L22.8797 15.7209C22.9062 15.4326 22.6944 15.1773 22.4061 15.1506C22.1176 15.1239 21.8615 15.3367 21.8348 15.6252L21.1641 22.8737L14.9328 16.76C14.7081 16.5395 14.3466 16.5431 14.1262 16.7678C13.9057 16.9925 13.9093 17.3539 14.134 17.5744L20.5674 23.8859L13.5378 29.0823C13.2847 29.2695 13.2315 29.627 13.4187 29.8802C13.6059 30.133 13.9625 30.1864 14.2156 29.9993L20.9666 25.0083L18.8468 47.9191C18.7039 47.9543 18.5672 48.0239 18.4498 48.1287L13.1866 52.8263C12.8025 53.1691 12.769 53.759 13.1119 54.1431L17.8095 59.4063C18.1523 59.7904 18.7421 59.8239 19.1263 59.4811L24.3895 54.7835C24.7736 54.4407 24.8071 53.8508 24.4642 53.4667L19.8641 48.3127L21.9947 25.2862L27.6398 30.8244C27.8645 31.0449 28.226 31.0423 28.4465 30.8176C28.6669 30.5929 28.6632 30.2314 28.4387 30.0109L22.32 24.0078ZM14.1013 53.5388L18.7072 49.4279L17.9299 57.8283L14.1013 53.5388ZM23.4747 54.071L18.9584 58.1021L19.7205 49.8648L23.4747 54.071Z" fill="white"/>
<path fill-rule="evenodd" clip-rule="evenodd" d="M61.0523 68.9583C61.3827 68.6431 61.6102 68.2426 61.7105 67.8073L61.7296 67.7924C62.8523 66.9127 63.8531 66.0199 64.1827 65.7055C64.4126 65.486 64.5313 65.186 64.5158 64.8822L64.4025 62.6019C64.3992 62.5512 64.408 62.5098 64.4152 62.4848L65.1349 60.058L64.7638 58.9262C64.7439 58.867 64.746 58.8122 64.7462 58.807L64.7472 58.7885L64.8595 57.184L64.4015 55.2924C64.32 54.959 64.3073 54.6153 64.3595 54.2787L64.8136 51.392C64.8357 51.247 64.8453 51.1018 64.8419 50.9574L64.8351 50.8139L64.6769 48.9574C64.6624 48.7866 64.666 48.6157 64.6837 48.4486L64.7755 47.6176L64.7882 47.4418C64.8029 47.0907 64.7467 46.7393 64.6202 46.4076L64.5509 46.2435L64.173 45.4242L59.7042 36.3822C59.516 36.0036 59.4191 35.5888 59.4191 35.1703C59.4191 33.2903 57.8636 31.7204 55.8566 31.6303L53.2628 31.5131L50.3292 31.3178C49.8899 31.2887 49.4487 31.327 49.0216 31.431L47.2511 31.8607C46.8659 31.9552 46.462 31.9561 46.0783 31.8656L45.5724 31.7455C45.3653 31.696 45.1487 31.6962 44.9406 31.7445L43.3386 32.6331L44.4678 32.6884L47.0508 32.8173C47.127 32.8214 47.2066 32.8217 47.2871 32.8173L48.6973 32.7245C48.9096 32.71 49.1216 32.7218 49.3291 32.7596L51.8936 33.2274C52.0157 33.2492 52.1374 33.2606 52.2608 33.2606H54.3262C55.2658 33.2606 56.1325 33.7733 56.5449 34.5927L57.6397 36.7636C57.6656 36.8155 57.692 36.8716 57.7149 36.9286L61.0362 45.0565L62.374 47.9315L62.4268 48.0321C62.5425 48.2331 62.827 48.8512 62.7373 49.8778C62.6483 50.8974 61.9403 56.0576 61.7609 57.3657L61.7383 57.5302C61.7327 57.5702 61.7292 57.6113 61.7266 57.6512L61.7237 57.7704L61.7686 67.286C61.7694 67.4631 61.7496 67.6378 61.7105 67.8073C61.3825 68.064 61.0452 68.3187 60.7124 68.5567C61.0551 68.2185 61.2464 67.763 61.2442 67.2889L61.1983 57.7762C61.1967 57.6686 61.2043 57.5612 61.2188 57.4579L61.241 57.2956C61.4211 55.9829 62.1273 50.8354 62.2149 49.8319C62.294 48.9259 62.0421 48.4153 61.9727 48.2948C61.9461 48.2491 61.921 48.2011 61.8985 48.1522L60.5606 45.2782L60.5557 45.2665L57.2295 37.1268C57.2137 37.0872 57.1933 37.0436 57.1709 36.9989L56.0772 34.828C55.7588 34.1954 55.0788 33.785 54.3262 33.785H52.2608C52.1049 33.785 51.9514 33.7709 51.8008 33.744L49.2354 33.2762C49.0695 33.246 48.901 33.2355 48.7334 33.247L47.3213 33.3397C47.2273 33.3449 47.1251 33.3472 47.0235 33.3417L43.041 33.1454L42.9951 33.1425C42.6629 33.1344 42.3368 33.2065 42.046 33.35C41.9663 33.3894 41.8893 33.4344 41.8155 33.4843C40.8752 34.12 39.0244 35.3739 37.3194 36.5438C35.6061 37.7195 34.0609 38.7954 33.7149 39.0848C33.6473 39.1415 33.5656 39.2525 33.4766 39.4296C33.3897 39.6027 33.3055 39.8205 33.2256 40.0702C33.066 40.5693 32.9297 41.1751 32.8194 41.7655C32.7093 42.3545 32.6254 42.922 32.5694 43.3427C32.5414 43.5528 32.5209 43.7261 32.5069 43.8466C32.4998 43.9066 32.4938 43.9534 32.4903 43.9852L32.4864 44.0214C32.4861 44.025 32.4858 44.0367 32.4854 44.0438L32.4815 44.1083L32.479 44.1501L32.4668 44.3573C32.4543 44.5746 32.4365 44.8921 32.4151 45.2909C32.3722 46.0891 32.315 47.2147 32.2578 48.5243C32.1434 51.1445 32.0293 54.4984 32.0293 57.4403C32.0293 61.7658 32.8289 65.3608 33.2461 66.9393L33.3028 67.1151C33.4555 67.5174 33.7559 67.8605 34.1553 68.079L35.3496 68.7313L35.458 68.7938L37.3838 69.9774C37.7388 70.1964 38.1615 70.2997 38.5869 70.2694L41.7217 70.0448C41.8654 70.0339 42.0107 70.0361 42.1543 70.0507L44.8496 70.3104C44.9111 70.3173 44.9796 70.3202 45.0469 70.3202H49.6543L49.6687 70.3198C49.6764 70.3196 49.6857 70.3193 49.6963 70.3192L49.7502 70.3189C49.774 70.3189 49.8099 70.3187 49.8404 70.3184L49.8594 70.3182C49.9871 70.3168 50.1664 70.3144 50.3864 70.3114L50.458 70.3104C50.9641 70.3036 51.6643 70.2933 52.4385 70.2782C53.9885 70.2479 55.8323 70.1997 57.0215 70.1278C57.8298 70.0793 58.6078 69.8072 59.2775 69.4737C59.0281 69.6073 58.8017 69.7095 58.6066 69.7729L58.6876 70.0229L58.7687 70.2719C58.3189 70.4408 57.8348 70.5675 57.334 70.6259L57.0528 70.6513C55.8514 70.7239 53.9977 70.7724 52.4483 70.8026C51.673 70.8177 50.9726 70.828 50.4658 70.8348L50.4213 70.8354C50.1883 70.8386 49.9985 70.8411 49.8653 70.8427L49.7022 70.8446H45.0469C44.9648 70.8446 44.8797 70.8413 44.7949 70.8319L42.1026 70.5722C41.9898 70.5607 41.8745 70.5597 41.7617 70.5682L38.624 70.7919C38.0913 70.8298 37.5589 70.7017 37.1084 70.4237L35.1856 69.2421C35.1536 69.2229 35.128 69.2076 35.1026 69.1942L33.9033 68.5389C33.8224 68.4946 33.7444 68.4462 33.6698 68.3938C32.2956 68.4541 30.7548 68.4992 29.3848 68.5318C28.2979 68.5577 27.3158 68.5758 26.6055 68.5875C26.2505 68.5933 25.9632 68.5974 25.7646 68.6002L25.5893 68.6025L25.5361 68.6031L25.4766 68.6041H19.0117C18.8909 68.6041 18.7716 68.5973 18.6553 68.5846L14.876 68.1373C14.7225 68.1194 14.5689 68.1169 14.418 68.1305L10.0234 68.5133C9.24773 68.5809 8.47983 68.3513 7.83887 67.8687L5.14551 65.8404L5.02832 65.7574L3.34961 64.6353C2.52818 64.0865 1.94833 63.1851 1.72559 62.1519C1.13231 59.4062 0 53.1715 0 45.6627C5.88958e-06 40.6015 0.160854 34.8376 0.321289 30.3414C0.40152 28.0929 0.481815 26.16 0.541992 24.7896C0.572074 24.1046 0.596703 23.5596 0.614258 23.1861C0.621576 23.0305 0.627685 22.9045 0.63224 22.8105L0.634766 22.7584C0.636161 22.7295 0.637539 22.7047 0.638681 22.6842L0.640625 22.648L0.641287 22.6293L0.642578 22.6031L0.643555 22.5904C0.643964 22.5874 0.645146 22.578 0.645508 22.5738L0.64707 22.5526C0.647898 22.5405 0.648891 22.526 0.650391 22.5094C0.653373 22.4762 0.657504 22.4338 0.662449 22.383L0.673828 22.2652C0.693879 22.0551 0.723953 21.7542 0.763672 21.3892C0.843114 20.6594 0.961196 19.6718 1.11816 18.6441C1.27485 17.6183 1.47159 16.5436 1.70703 15.6422C1.82467 15.1918 1.95399 14.7764 2.09668 14.4283C2.23583 14.0889 2.40209 13.7762 2.6084 13.5641C3.12784 13.0312 5.33657 11.1502 7.71484 9.15292C10.1056 7.14519 12.7004 4.9937 14.0186 3.90292C14.1454 3.79789 14.2778 3.70317 14.4149 3.61915L18.5077 0.841233L18.5576 0.807053L18.6152 0.789475C19.0493 0.653989 19.5097 0.647431 19.9482 0.775803L20.6552 0.981858C21.063 1.10092 21.4888 1.09892 21.8974 0.977952L24.3788 0.238694L24.6357 0.168381C25.2365 0.0191497 25.8548 -0.0315869 26.4706 0.0189674L30.5605 0.352952L34.1952 0.554124C37.4526 0.734708 39.9218 3.83283 39.9218 7.47697C39.9219 8.07546 40.0357 8.66506 40.2529 9.20354L46.5165 24.7153L47.0497 26.1322C47.3786 27.006 47.5047 27.9605 47.4199 28.9047L47.2919 30.3266C47.2698 30.5645 47.2676 30.8081 47.2841 31.0512L47.302 31.3094L48.8976 30.9213C49.3765 30.8046 49.8708 30.7617 50.3634 30.7943L53.2921 30.9896L55.88 31.1059C58.1441 31.2075 59.9435 32.987 59.9435 35.1703C59.9435 35.4236 59.9881 35.6752 60.0743 35.9144L60.1749 36.1498L64.6456 45.1977L65.0275 46.0238C65.2664 46.5426 65.3591 47.1129 65.297 47.6752L65.2062 48.5043C65.1916 48.6421 65.1889 48.7794 65.2003 48.9135L65.3576 50.7699L65.3663 50.9457C65.3704 51.1213 65.3587 51.2969 65.3322 51.4711L64.8781 54.3598C64.8361 54.6304 64.8457 54.9042 64.9103 55.1684L65.3751 57.0814L65.3793 57.1014C65.3807 57.1098 65.3859 57.1402 65.3859 57.1732L65.3849 57.1908L65.2716 58.7894L65.6495 59.9447C65.6731 60.0153 65.6732 60.0897 65.6515 60.1605L64.9269 62.6029L65.0402 64.8559C65.0636 65.3151 64.8833 65.7625 64.5451 66.0854C64.2024 66.4123 63.1882 67.3159 62.0529 68.2055C61.7261 68.4615 61.3881 68.7173 61.0523 68.9583ZM41.8012 32.886L41.7921 32.891C41.699 32.9381 41.6083 32.9901 41.5215 33.0487C40.581 33.6846 38.7291 34.9402 37.0225 36.1112C35.3244 37.2764 33.7485 38.3734 33.378 38.6835C33.2297 38.8079 33.1081 38.9925 33.0069 39.1942C32.9034 39.4003 32.8102 39.6456 32.7256 39.91C32.5564 40.4392 32.4158 41.0693 32.3037 41.6688C32.1914 42.2697 32.1066 42.8469 32.0498 43.2733C32.0214 43.4867 31.9997 43.6631 31.9854 43.786L31.9715 43.9046L31.9688 43.9286L31.9649 43.9657L31.9639 43.9794L31.9629 43.996L31.9619 44.0126L31.958 44.077L31.9568 44.0974L31.9434 44.327C31.9308 44.545 31.9131 44.8629 31.8916 45.2626C31.8487 46.0621 31.7907 47.1893 31.7334 48.5009C31.6189 51.1238 31.5039 54.4871 31.5039 57.4403C31.5039 61.8261 32.3152 65.4684 32.7393 67.0731L32.8125 67.3016C32.8531 67.4085 32.9015 67.5117 32.9572 67.6108C31.7763 67.6569 30.5137 67.6929 29.3652 67.7203C28.2809 67.7462 27.3007 67.7643 26.5918 67.776C26.2375 67.7818 25.9508 67.7859 25.7529 67.7887L25.5254 67.7916L25.4658 67.7926H19.0117C18.9254 67.7926 18.8378 67.7868 18.7471 67.7769L14.9707 67.3307C14.7643 67.3065 14.5547 67.3021 14.3457 67.3209L9.95312 67.7047C9.38742 67.754 8.8165 67.5878 8.32715 67.2193L5.63281 65.191L5.47363 65.0787L3.80078 63.9596C3.17363 63.5405 2.70285 62.8307 2.51953 61.9801C1.93373 59.2689 0.8125 53.0951 0.8125 45.6627C0.812506 40.6158 0.972502 34.8635 1.13281 30.3707C1.21295 28.1248 1.29341 26.1945 1.35352 24.8258C1.38357 24.1414 1.40826 23.597 1.42578 23.2242C1.43262 23.0787 1.43844 22.9591 1.44289 22.8675L1.44629 22.7975L1.44947 22.7264L1.45117 22.6881C1.45153 22.6808 1.45271 22.665 1.45312 22.6598L1.4541 22.6441L1.45632 22.6204L1.45996 22.5816L1.46491 22.5253C1.46919 22.4761 1.47454 22.4147 1.48145 22.3424C1.5012 22.1354 1.53103 21.838 1.57031 21.4771C1.64895 20.7546 1.76627 19.7796 1.9209 18.7672C2.07583 17.7528 2.26706 16.7092 2.49219 15.8473C2.60482 15.416 2.72371 15.0382 2.84766 14.7359C2.97482 14.4258 3.09343 14.2305 3.18945 14.1314C3.67214 13.6362 5.83521 11.7914 8.23633 9.77499C10.625 7.76901 13.2185 5.61827 14.5361 4.52792C15.0279 4.12074 15.6133 3.92743 16.2002 3.96151L21.7803 4.29843C21.9255 4.30777 22.0703 4.30658 22.2109 4.2955L24.1885 4.13534C24.4153 4.11736 24.6413 4.13377 24.8623 4.18319L28.4561 4.98398C28.6761 5.03243 28.8987 5.05624 29.123 5.05624H32.0166C32.9502 5.05624 33.8421 5.64249 34.3301 6.6373L34.4219 6.84237L35.9551 10.5641C35.9857 10.6384 36.0139 10.7137 36.0381 10.7877L40.6973 24.7457L40.7031 24.7613L42.5791 29.69C42.6109 29.7724 42.6482 29.8548 42.6797 29.9244C42.7724 30.1239 43.0764 30.879 43.0493 32.1941L41.8109 32.8806L41.8012 32.886ZM46.4745 31.1069L46.495 31.4016C46.3956 31.3934 46.2967 31.3778 46.1993 31.3549L45.6945 31.2348C45.3941 31.163 45.0811 31.1674 44.7843 31.2426L44.7511 31.2504L44.7218 31.267L43.858 31.7458C43.8245 30.7537 43.6207 30.0846 43.4834 29.7398L43.3369 29.398L41.4668 24.4859L36.8076 10.5309C36.7768 10.4369 36.7433 10.3449 36.7061 10.2545L35.1729 6.53183L35.0596 6.28085C34.4558 5.05148 33.309 4.24472 32.0166 4.24472H29.123C28.9579 4.24472 28.7948 4.22689 28.6318 4.19101L25.0391 3.39023C24.7372 3.32276 24.4298 3.30251 24.124 3.32675L22.1455 3.48593C22.0402 3.4942 21.9329 3.4956 21.8291 3.48886L16.5248 3.16772L18.9091 1.54924C19.1768 1.47591 19.4544 1.47744 19.7197 1.5551L20.4277 1.76115C20.9876 1.92463 21.5729 1.921 22.1288 1.75627L24.6103 1.01701C25.1963 0.842721 25.8024 0.77816 26.4042 0.827561L30.5165 1.1635L34.1503 1.36467C36.8757 1.51578 39.1093 4.15415 39.1093 7.47697C39.1094 8.17737 39.243 8.87022 39.4999 9.50725L45.7597 25.0102L46.29 26.4184C46.5747 27.1749 46.6855 28.0068 46.6113 28.8324L46.4833 30.2524C46.4568 30.5372 46.4553 30.824 46.4745 31.1069Z" fill="white"/>
<path fill-rule="evenodd" clip-rule="evenodd" d="M46.7681 57.801L42.4661 53.0154C42.1281 52.6401 42.0263 52.1099 42.1995 51.6365L46.8655 38.8455C47.0799 38.2582 47.8645 38.2107 48.1672 38.7146L48.2209 38.823L53.3 51.3669C53.4807 51.8139 53.4104 52.3218 53.1165 52.7038L49.1936 57.801H54.8302C55.0544 57.801 55.2365 57.983 55.2365 58.2072C55.2365 58.4314 55.0544 58.6135 54.8302 58.6135H48.5902L53.9622 64.5896C54.112 64.7563 54.0986 65.0129 53.9319 65.1628C53.7651 65.3127 53.5086 65.2993 53.3586 65.1326L48.0745 59.2546L42.7043 66.2341C42.5676 66.4117 42.3127 66.445 42.135 66.3083C41.9575 66.1715 41.9251 65.9166 42.0618 65.739L47.5227 58.6404L47.4985 58.6135H41.9191C41.6948 58.6135 41.5128 58.4314 41.5128 58.2072C41.5128 57.983 41.6948 57.801 41.9191 57.801H46.7681ZM52.4729 52.2087L48.1691 57.801H47.8602L43.0696 52.4724C42.9337 52.3216 42.892 52.1069 42.9622 51.9148L47.551 39.3337L52.5471 51.6716L52.5696 51.74C52.6113 51.9015 52.5765 52.0741 52.4729 52.2087Z" fill="white"/>
</svg>
